<mxfile host="app.diagrams.net" modified="2022-03-21T10:14:04.653Z" agent="5.0 (Windows NT 10.0; Win64; x64) AppleWebKit/537.36 (KHTML, like Gecko) Chrome/98.0.4758.109 Safari/537.36 OPR/84.0.4316.31" etag="CWfcKyomrY3vRpyB3Hm7" version="17.1.3" type="github">
  <diagram name="Page-1" id="74e2e168-ea6b-b213-b513-2b3c1d86103e">
    <mxGraphModel dx="1238" dy="588" grid="1" gridSize="10" guides="1" tooltips="1" connect="1" arrows="1" fold="1" page="1" pageScale="1" pageWidth="1100" pageHeight="850" background="none" math="0" shadow="0">
      <root>
        <mxCell id="0" />
        <mxCell id="1" parent="0" />
        <mxCell id="77e6c97f196da883-1" value="Prosedur Pengiriman" style="swimlane;html=1;childLayout=stackLayout;startSize=20;rounded=0;shadow=0;labelBackgroundColor=none;strokeWidth=1;fontFamily=Verdana;fontSize=8;align=center;" parent="1" vertex="1">
          <mxGeometry x="70" y="40" width="1110" height="1030" as="geometry" />
        </mxCell>
        <mxCell id="77e6c97f196da883-2" value="Pembeli" style="swimlane;html=1;startSize=20;" parent="77e6c97f196da883-1" vertex="1">
          <mxGeometry y="20" width="280" height="1010" as="geometry" />
        </mxCell>
        <mxCell id="EdWhpN9gnUDmOeJODIAp-54" value="Resi" style="strokeWidth=2;html=1;shape=mxgraph.flowchart.document2;whiteSpace=wrap;size=0.25;" parent="77e6c97f196da883-2" vertex="1">
          <mxGeometry x="140" y="650" width="100" height="60" as="geometry" />
        </mxCell>
        <mxCell id="EdWhpN9gnUDmOeJODIAp-56" value="END" style="strokeWidth=2;html=1;shape=mxgraph.flowchart.terminator;whiteSpace=wrap;" parent="77e6c97f196da883-2" vertex="1">
          <mxGeometry x="140" y="770" width="100" height="60" as="geometry" />
        </mxCell>
        <mxCell id="EdWhpN9gnUDmOeJODIAp-57" value="" style="endArrow=classic;html=1;rounded=0;startSize=14;endSize=14;sourcePerimeterSpacing=8;targetPerimeterSpacing=8;curved=1;exitX=0.48;exitY=0.902;exitDx=0;exitDy=0;exitPerimeter=0;entryX=0.5;entryY=0;entryDx=0;entryDy=0;entryPerimeter=0;" parent="77e6c97f196da883-2" source="EdWhpN9gnUDmOeJODIAp-54" target="EdWhpN9gnUDmOeJODIAp-56" edge="1">
          <mxGeometry width="50" height="50" relative="1" as="geometry">
            <mxPoint x="360" y="730" as="sourcePoint" />
            <mxPoint x="410" y="680" as="targetPoint" />
          </mxGeometry>
        </mxCell>
        <mxCell id="77e6c97f196da883-40" style="edgeStyle=orthogonalEdgeStyle;rounded=1;html=1;labelBackgroundColor=none;startArrow=none;startFill=0;startSize=5;endArrow=classicThin;endFill=1;endSize=5;jettySize=auto;orthogonalLoop=1;strokeWidth=1;fontFamily=Verdana;fontSize=8" parent="77e6c97f196da883-1" edge="1">
          <mxGeometry relative="1" as="geometry">
            <mxPoint x="610" y="690" as="sourcePoint" />
          </mxGeometry>
        </mxCell>
        <mxCell id="EdWhpN9gnUDmOeJODIAp-36" value="" style="endArrow=classic;html=1;rounded=0;startSize=14;endSize=14;sourcePerimeterSpacing=8;targetPerimeterSpacing=8;curved=1;exitX=1;exitY=0.5;exitDx=0;exitDy=0;exitPerimeter=0;entryX=0;entryY=0.5;entryDx=0;entryDy=0;entryPerimeter=0;" parent="77e6c97f196da883-1" source="EdWhpN9gnUDmOeJODIAp-33" target="EdWhpN9gnUDmOeJODIAp-35" edge="1">
          <mxGeometry width="50" height="50" relative="1" as="geometry">
            <mxPoint x="680" y="490" as="sourcePoint" />
            <mxPoint x="730" y="440" as="targetPoint" />
          </mxGeometry>
        </mxCell>
        <mxCell id="77e6c97f196da883-3" value="Penjual" style="swimlane;html=1;startSize=20;" parent="77e6c97f196da883-1" vertex="1">
          <mxGeometry x="280" y="20" width="450" height="1010" as="geometry" />
        </mxCell>
        <mxCell id="EdWhpN9gnUDmOeJODIAp-1" value="START" style="strokeWidth=2;html=1;shape=mxgraph.flowchart.terminator;whiteSpace=wrap;" parent="77e6c97f196da883-3" vertex="1">
          <mxGeometry x="30" y="50" width="100" height="60" as="geometry" />
        </mxCell>
        <mxCell id="EdWhpN9gnUDmOeJODIAp-6" value="Packing" style="verticalLabelPosition=middle;verticalAlign=middle;html=1;shape=trapezoid;perimeter=trapezoidPerimeter;whiteSpace=wrap;size=0.23;arcSize=10;flipV=1;labelPosition=center;align=center;" parent="77e6c97f196da883-3" vertex="1">
          <mxGeometry x="260" y="160" width="100" height="60" as="geometry" />
        </mxCell>
        <mxCell id="EdWhpN9gnUDmOeJODIAp-7" value="Produk yang &lt;br&gt;ingin dikirim" style="strokeWidth=2;html=1;shape=mxgraph.flowchart.document2;whiteSpace=wrap;size=0.25;" parent="77e6c97f196da883-3" vertex="1">
          <mxGeometry x="30" y="160" width="100" height="60" as="geometry" />
        </mxCell>
        <mxCell id="EdWhpN9gnUDmOeJODIAp-8" value="" style="endArrow=classic;html=1;rounded=0;startSize=14;endSize=14;sourcePerimeterSpacing=8;targetPerimeterSpacing=8;curved=1;exitX=0.5;exitY=1;exitDx=0;exitDy=0;exitPerimeter=0;entryX=0.5;entryY=0;entryDx=0;entryDy=0;entryPerimeter=0;" parent="77e6c97f196da883-3" source="EdWhpN9gnUDmOeJODIAp-1" target="EdWhpN9gnUDmOeJODIAp-7" edge="1">
          <mxGeometry width="50" height="50" relative="1" as="geometry">
            <mxPoint x="30" y="220" as="sourcePoint" />
            <mxPoint x="80" y="140" as="targetPoint" />
          </mxGeometry>
        </mxCell>
        <mxCell id="EdWhpN9gnUDmOeJODIAp-10" value="" style="endArrow=classic;html=1;rounded=0;startSize=14;endSize=14;sourcePerimeterSpacing=8;targetPerimeterSpacing=8;curved=1;exitX=1;exitY=0.5;exitDx=0;exitDy=0;exitPerimeter=0;entryX=0;entryY=0.5;entryDx=0;entryDy=0;" parent="77e6c97f196da883-3" source="EdWhpN9gnUDmOeJODIAp-7" target="EdWhpN9gnUDmOeJODIAp-6" edge="1">
          <mxGeometry width="50" height="50" relative="1" as="geometry">
            <mxPoint x="110" y="300" as="sourcePoint" />
            <mxPoint x="160" y="250" as="targetPoint" />
          </mxGeometry>
        </mxCell>
        <mxCell id="EdWhpN9gnUDmOeJODIAp-11" value="Produk yang sudah di-packing" style="strokeWidth=2;html=1;shape=mxgraph.flowchart.document2;whiteSpace=wrap;size=0.25;" parent="77e6c97f196da883-3" vertex="1">
          <mxGeometry x="260" y="290" width="100" height="60" as="geometry" />
        </mxCell>
        <mxCell id="EdWhpN9gnUDmOeJODIAp-12" value="" style="endArrow=classic;html=1;rounded=0;startSize=14;endSize=14;sourcePerimeterSpacing=8;targetPerimeterSpacing=8;curved=1;exitX=0.5;exitY=1;exitDx=0;exitDy=0;entryX=0.5;entryY=0;entryDx=0;entryDy=0;entryPerimeter=0;" parent="77e6c97f196da883-3" source="EdWhpN9gnUDmOeJODIAp-6" target="EdWhpN9gnUDmOeJODIAp-11" edge="1">
          <mxGeometry width="50" height="50" relative="1" as="geometry">
            <mxPoint x="110" y="410" as="sourcePoint" />
            <mxPoint x="160" y="360" as="targetPoint" />
          </mxGeometry>
        </mxCell>
        <mxCell id="EdWhpN9gnUDmOeJODIAp-13" value="???" style="shape=cylinder3;whiteSpace=wrap;html=1;boundedLbl=1;backgroundOutline=1;size=15;" parent="77e6c97f196da883-3" vertex="1">
          <mxGeometry x="60" y="270" width="60" height="80" as="geometry" />
        </mxCell>
        <mxCell id="EdWhpN9gnUDmOeJODIAp-16" value="" style="endArrow=classic;html=1;rounded=0;startSize=14;endSize=14;sourcePerimeterSpacing=8;targetPerimeterSpacing=8;curved=1;exitX=0.5;exitY=1;exitDx=0;exitDy=0;exitPerimeter=0;entryX=0.5;entryY=0;entryDx=0;entryDy=0;" parent="77e6c97f196da883-3" source="EdWhpN9gnUDmOeJODIAp-13" target="EdWhpN9gnUDmOeJODIAp-37" edge="1">
          <mxGeometry width="50" height="50" relative="1" as="geometry">
            <mxPoint x="110" y="390" as="sourcePoint" />
            <mxPoint x="110" y="390" as="targetPoint" />
          </mxGeometry>
        </mxCell>
        <mxCell id="EdWhpN9gnUDmOeJODIAp-33" value="Paket&lt;br&gt;dengan Alamat Pembeli" style="strokeWidth=2;html=1;shape=mxgraph.flowchart.document2;whiteSpace=wrap;size=0.25;" parent="77e6c97f196da883-3" vertex="1">
          <mxGeometry x="260" y="540" width="100" height="60" as="geometry" />
        </mxCell>
        <mxCell id="EdWhpN9gnUDmOeJODIAp-37" value="Mencari Alamat&lt;br&gt;Inputan Pembeli" style="rounded=0;whiteSpace=wrap;html=1;" parent="77e6c97f196da883-3" vertex="1">
          <mxGeometry x="30" y="420" width="120" height="60" as="geometry" />
        </mxCell>
        <mxCell id="EdWhpN9gnUDmOeJODIAp-38" value="Mencetak Alamat&lt;br&gt;Pembeli" style="rounded=0;whiteSpace=wrap;html=1;" parent="77e6c97f196da883-3" vertex="1">
          <mxGeometry x="30" y="520" width="120" height="60" as="geometry" />
        </mxCell>
        <mxCell id="EdWhpN9gnUDmOeJODIAp-39" value="" style="endArrow=classic;html=1;rounded=0;startSize=14;endSize=14;sourcePerimeterSpacing=8;targetPerimeterSpacing=8;curved=1;exitX=0.5;exitY=1;exitDx=0;exitDy=0;entryX=0.5;entryY=0;entryDx=0;entryDy=0;" parent="77e6c97f196da883-3" source="EdWhpN9gnUDmOeJODIAp-37" target="EdWhpN9gnUDmOeJODIAp-38" edge="1">
          <mxGeometry width="50" height="50" relative="1" as="geometry">
            <mxPoint x="340" y="500" as="sourcePoint" />
            <mxPoint x="390" y="450" as="targetPoint" />
          </mxGeometry>
        </mxCell>
        <mxCell id="EdWhpN9gnUDmOeJODIAp-40" value="Menempelkan Alamat pada Paket" style="verticalLabelPosition=middle;verticalAlign=middle;html=1;shape=trapezoid;perimeter=trapezoidPerimeter;whiteSpace=wrap;size=0.23;arcSize=10;flipV=1;labelPosition=center;align=center;" parent="77e6c97f196da883-3" vertex="1">
          <mxGeometry x="260" y="420" width="100" height="60" as="geometry" />
        </mxCell>
        <mxCell id="EdWhpN9gnUDmOeJODIAp-41" value="" style="endArrow=classic;html=1;rounded=0;startSize=14;endSize=14;sourcePerimeterSpacing=8;targetPerimeterSpacing=8;curved=1;exitX=1;exitY=0.5;exitDx=0;exitDy=0;entryX=0;entryY=0.5;entryDx=0;entryDy=0;" parent="77e6c97f196da883-3" source="EdWhpN9gnUDmOeJODIAp-38" target="EdWhpN9gnUDmOeJODIAp-40" edge="1">
          <mxGeometry width="50" height="50" relative="1" as="geometry">
            <mxPoint x="340" y="570" as="sourcePoint" />
            <mxPoint x="390" y="520" as="targetPoint" />
            <Array as="points">
              <mxPoint x="180" y="450" />
            </Array>
          </mxGeometry>
        </mxCell>
        <mxCell id="EdWhpN9gnUDmOeJODIAp-42" value="" style="endArrow=classic;html=1;rounded=0;startSize=14;endSize=14;sourcePerimeterSpacing=8;targetPerimeterSpacing=8;curved=1;exitX=0.48;exitY=0.908;exitDx=0;exitDy=0;exitPerimeter=0;entryX=0.5;entryY=0;entryDx=0;entryDy=0;" parent="77e6c97f196da883-3" source="EdWhpN9gnUDmOeJODIAp-11" target="EdWhpN9gnUDmOeJODIAp-40" edge="1">
          <mxGeometry width="50" height="50" relative="1" as="geometry">
            <mxPoint x="340" y="480" as="sourcePoint" />
            <mxPoint x="390" y="430" as="targetPoint" />
          </mxGeometry>
        </mxCell>
        <mxCell id="EdWhpN9gnUDmOeJODIAp-43" value="" style="endArrow=classic;html=1;rounded=0;startSize=14;endSize=14;sourcePerimeterSpacing=8;targetPerimeterSpacing=8;curved=1;exitX=0.5;exitY=1;exitDx=0;exitDy=0;entryX=0.5;entryY=0;entryDx=0;entryDy=0;entryPerimeter=0;" parent="77e6c97f196da883-3" source="EdWhpN9gnUDmOeJODIAp-40" target="EdWhpN9gnUDmOeJODIAp-33" edge="1">
          <mxGeometry width="50" height="50" relative="1" as="geometry">
            <mxPoint x="340" y="660" as="sourcePoint" />
            <mxPoint x="390" y="610" as="targetPoint" />
          </mxGeometry>
        </mxCell>
        <mxCell id="EdWhpN9gnUDmOeJODIAp-52" value="Resi" style="strokeWidth=2;html=1;shape=mxgraph.flowchart.document2;whiteSpace=wrap;size=0.25;" parent="77e6c97f196da883-3" vertex="1">
          <mxGeometry x="260" y="650" width="100" height="60" as="geometry" />
        </mxCell>
        <mxCell id="77e6c97f196da883-4" value="Ekspedisi" style="swimlane;html=1;startSize=20;" parent="77e6c97f196da883-1" vertex="1">
          <mxGeometry x="730" y="20" width="380" height="1010" as="geometry" />
        </mxCell>
        <mxCell id="EdWhpN9gnUDmOeJODIAp-35" value="Paket&lt;br&gt;dengan Alamat Pembeli" style="strokeWidth=2;html=1;shape=mxgraph.flowchart.document2;whiteSpace=wrap;size=0.25;" parent="77e6c97f196da883-4" vertex="1">
          <mxGeometry x="230" y="540" width="100" height="60" as="geometry" />
        </mxCell>
        <mxCell id="EdWhpN9gnUDmOeJODIAp-44" value="Membuat Resi" style="rounded=0;whiteSpace=wrap;html=1;" parent="77e6c97f196da883-4" vertex="1">
          <mxGeometry x="220" y="650" width="120" height="60" as="geometry" />
        </mxCell>
        <mxCell id="EdWhpN9gnUDmOeJODIAp-46" value="Resi" style="strokeWidth=2;html=1;shape=mxgraph.flowchart.document2;whiteSpace=wrap;size=0.25;" parent="77e6c97f196da883-4" vertex="1">
          <mxGeometry x="70" y="650" width="100" height="60" as="geometry" />
        </mxCell>
        <mxCell id="EdWhpN9gnUDmOeJODIAp-47" value="???" style="shape=cylinder3;whiteSpace=wrap;html=1;boundedLbl=1;backgroundOutline=1;size=15;" parent="77e6c97f196da883-4" vertex="1">
          <mxGeometry x="90" y="760" width="60" height="80" as="geometry" />
        </mxCell>
        <mxCell id="EdWhpN9gnUDmOeJODIAp-49" value="" style="endArrow=classic;html=1;rounded=0;startSize=14;endSize=14;sourcePerimeterSpacing=8;targetPerimeterSpacing=8;curved=1;exitX=0.498;exitY=0.915;exitDx=0;exitDy=0;exitPerimeter=0;entryX=0.5;entryY=0;entryDx=0;entryDy=0;" parent="77e6c97f196da883-4" source="EdWhpN9gnUDmOeJODIAp-35" target="EdWhpN9gnUDmOeJODIAp-44" edge="1">
          <mxGeometry width="50" height="50" relative="1" as="geometry">
            <mxPoint x="60" y="590" as="sourcePoint" />
            <mxPoint x="110" y="540" as="targetPoint" />
          </mxGeometry>
        </mxCell>
        <mxCell id="EdWhpN9gnUDmOeJODIAp-50" value="" style="endArrow=classic;html=1;rounded=0;startSize=14;endSize=14;sourcePerimeterSpacing=8;targetPerimeterSpacing=8;curved=1;exitX=0;exitY=0.5;exitDx=0;exitDy=0;entryX=1;entryY=0.5;entryDx=0;entryDy=0;entryPerimeter=0;" parent="77e6c97f196da883-4" source="EdWhpN9gnUDmOeJODIAp-44" target="EdWhpN9gnUDmOeJODIAp-46" edge="1">
          <mxGeometry width="50" height="50" relative="1" as="geometry">
            <mxPoint x="-110" y="760" as="sourcePoint" />
            <mxPoint x="-60" y="710" as="targetPoint" />
          </mxGeometry>
        </mxCell>
        <mxCell id="EdWhpN9gnUDmOeJODIAp-51" value="" style="endArrow=classic;html=1;rounded=0;startSize=14;endSize=14;sourcePerimeterSpacing=8;targetPerimeterSpacing=8;curved=1;entryX=0.5;entryY=0;entryDx=0;entryDy=0;entryPerimeter=0;" parent="77e6c97f196da883-4" target="EdWhpN9gnUDmOeJODIAp-47" edge="1">
          <mxGeometry width="50" height="50" relative="1" as="geometry">
            <mxPoint x="120" y="700" as="sourcePoint" />
            <mxPoint x="-60" y="710" as="targetPoint" />
          </mxGeometry>
        </mxCell>
        <mxCell id="EdWhpN9gnUDmOeJODIAp-53" value="" style="endArrow=classic;html=1;rounded=0;startSize=14;endSize=14;sourcePerimeterSpacing=8;targetPerimeterSpacing=8;curved=1;exitX=0;exitY=0.5;exitDx=0;exitDy=0;exitPerimeter=0;entryX=1;entryY=0.5;entryDx=0;entryDy=0;entryPerimeter=0;" parent="77e6c97f196da883-1" source="EdWhpN9gnUDmOeJODIAp-46" target="EdWhpN9gnUDmOeJODIAp-52" edge="1">
          <mxGeometry width="50" height="50" relative="1" as="geometry">
            <mxPoint x="620" y="780" as="sourcePoint" />
            <mxPoint x="670" y="730" as="targetPoint" />
          </mxGeometry>
        </mxCell>
        <mxCell id="EdWhpN9gnUDmOeJODIAp-55" value="" style="endArrow=classic;html=1;rounded=0;startSize=14;endSize=14;sourcePerimeterSpacing=8;targetPerimeterSpacing=8;curved=1;exitX=0;exitY=0.5;exitDx=0;exitDy=0;exitPerimeter=0;entryX=1;entryY=0.5;entryDx=0;entryDy=0;entryPerimeter=0;" parent="77e6c97f196da883-1" source="EdWhpN9gnUDmOeJODIAp-52" target="EdWhpN9gnUDmOeJODIAp-54" edge="1">
          <mxGeometry width="50" height="50" relative="1" as="geometry">
            <mxPoint x="360" y="750" as="sourcePoint" />
            <mxPoint x="410" y="700" as="targetPoint" />
          </mxGeometry>
        </mxCell>
      </root>
    </mxGraphModel>
  </diagram>
</mxfile>
